<?xml version="1.0" encoding="UTF-8"?>
<!DOCTYPE svg PUBLIC "-//W3C//DTD SVG 1.1//EN" "http://www.w3.org/Graphics/SVG/1.1/DTD/svg11.dtd">
<!-- Creator: CorelDRAW -->
<svg xmlns="http://www.w3.org/2000/svg" xml:space="preserve" width="443px" height="118px" version="1.1" style="shape-rendering:geometricPrecision; text-rendering:geometricPrecision; image-rendering:optimizeQuality; fill-rule:evenodd; clip-rule:evenodd"
viewBox="0 0 294.62 78.55"
 xmlns:xlink="http://www.w3.org/1999/xlink"
 xmlns:xodm="http://www.corel.com/coreldraw/odm/2003">
 <defs>
  <style type="text/css">
   <![CDATA[
    .fil3 {fill:#F0F0F0}
    .fil1 {fill:#03888F;fill-rule:nonzero}
    .fil2 {fill:#F0F0F0;fill-rule:nonzero}
    .fil0 {fill:#F0F0F0;fill-rule:nonzero}
   ]]>
  </style>
 </defs>
 <g id="Layer_x0020_1">
  <metadata id="CorelCorpID_0Corel-Layer"/>
  <g id="_2756957427456">
   <g>
    <path class="fil0" d="M0 39.27c0,-21.69 17.58,-39.27 39.27,-39.27 21.69,0 39.28,17.58 39.28,39.27 0,21.69 -17.59,39.28 -39.28,39.28 -21.69,0 -39.27,-17.59 -39.27,-39.28z"/>
    <path class="fil1" d="M40.44 27.84c0,-5.9 4.78,-10.68 10.68,-10.68 5.91,0 10.69,4.78 10.69,10.68 0,5.9 -4.78,10.69 -10.69,10.69 -5.9,0 -10.68,-4.79 -10.68,-10.69z"/>
    <path class="fil1" d="M30.23 66.9l0 0c-4.14,0 -7.49,-3.36 -7.49,-7.49l0 -36.27c0,-4.13 3.35,-7.48 7.49,-7.48l0 0c4.13,0 7.48,3.35 7.48,7.48l0 36.27c0,4.13 -3.35,7.49 -7.48,7.49z"/>
   </g>
   <path class="fil2" d="M97.02 32.96c0.9,-1.37 2.01,-2.45 3.36,-3.24 1.34,-0.79 2.83,-1.19 4.47,-1.19l0 8.1 -2.1 0c-1.91,0 -3.34,0.41 -4.3,1.23 -0.95,0.81 -1.43,2.25 -1.43,4.31l0 11.58 -7.64 0 0 -24.95 7.64 0 0 4.16zm22.85 21.15c-2.44,0 -4.64,-0.52 -6.59,-1.57 -1.96,-1.04 -3.49,-2.53 -4.61,-4.47 -1.12,-1.93 -1.68,-4.2 -1.68,-6.79 0,-2.57 0.57,-4.83 1.7,-6.78 1.14,-1.95 2.69,-3.45 4.65,-4.49 1.97,-1.05 4.18,-1.57 6.62,-1.57 2.45,0 4.65,0.52 6.62,1.57 1.97,1.04 3.52,2.54 4.65,4.49 1.13,1.95 1.7,4.21 1.7,6.78 0,2.56 -0.58,4.82 -1.72,6.77 -1.15,1.95 -2.72,3.45 -4.7,4.49 -1.98,1.05 -4.19,1.57 -6.64,1.57zm0 -6.62c1.46,0 2.71,-0.54 3.74,-1.61 1.02,-1.07 1.54,-2.61 1.54,-4.6 0,-2 -0.5,-3.54 -1.5,-4.61 -1,-1.07 -2.23,-1.61 -3.69,-1.61 -1.49,0 -2.73,0.53 -3.71,1.59 -0.98,1.06 -1.48,2.6 -1.48,4.63 0,1.99 0.49,3.53 1.46,4.6 0.97,1.07 2.18,1.61 3.64,1.61zm48.96 -18.96c3.1,0 5.57,0.94 7.4,2.82 1.84,1.88 2.75,4.49 2.75,7.82l0 14.58 -7.6 0 0 -13.55c0,-1.61 -0.42,-2.85 -1.27,-3.73 -0.85,-0.88 -2.02,-1.32 -3.51,-1.32 -1.49,0 -2.66,0.44 -3.51,1.32 -0.85,0.88 -1.28,2.12 -1.28,3.73l0 13.55 -7.6 0 0 -13.55c0,-1.61 -0.42,-2.85 -1.27,-3.73 -0.85,-0.88 -2.02,-1.32 -3.51,-1.32 -1.49,0 -2.66,0.44 -3.51,1.32 -0.85,0.88 -1.28,2.12 -1.28,3.73l0 13.55 -7.64 0 0 -24.95 7.64 0 0 3.13c0.78,-1.04 1.79,-1.87 3.04,-2.48 1.26,-0.61 2.67,-0.92 4.25,-0.92 1.88,0 3.56,0.4 5.03,1.21 1.48,0.8 2.63,1.95 3.47,3.44 0.86,-1.37 2.04,-2.49 3.53,-3.35 1.49,-0.87 3.12,-1.3 4.87,-1.3zm14 12.7c0,-2.56 0.48,-4.81 1.45,-6.75 0.97,-1.94 2.29,-3.43 3.96,-4.47 1.67,-1.05 3.53,-1.57 5.59,-1.57 1.76,0 3.3,0.36 4.63,1.08 1.32,0.71 2.34,1.65 3.06,2.81l0 -3.53 7.65 0 0 24.95 -7.65 0 0 -3.53c-0.74,1.16 -1.78,2.1 -3.11,2.82 -1.32,0.71 -2.87,1.07 -4.62,1.07 -2.03,0 -3.88,-0.53 -5.55,-1.59 -1.67,-1.06 -2.99,-2.56 -3.96,-4.51 -0.97,-1.96 -1.45,-4.22 -1.45,-6.78zm18.69 0.05c0,-1.91 -0.53,-3.42 -1.59,-4.52 -1.06,-1.1 -2.34,-1.65 -3.86,-1.65 -1.52,0 -2.81,0.54 -3.87,1.63 -1.06,1.09 -1.59,2.58 -1.59,4.49 0,1.91 0.53,3.42 1.59,4.54 1.06,1.12 2.35,1.68 3.87,1.68 1.52,0 2.8,-0.56 3.86,-1.66 1.06,-1.1 1.59,-2.61 1.59,-4.51zm28.39 -12.75c2.93,0 5.26,0.95 7,2.84 1.75,1.89 2.62,4.5 2.62,7.8l0 14.58 -7.6 0 0 -13.55c0,-1.67 -0.44,-2.96 -1.3,-3.89 -0.87,-0.92 -2.03,-1.38 -3.49,-1.38 -1.46,0 -2.62,0.46 -3.49,1.38 -0.86,0.93 -1.29,2.22 -1.29,3.89l0 13.55 -7.65 0 0 -24.95 7.65 0 0 3.31c0.77,-1.1 1.82,-1.97 3.13,-2.62 1.31,-0.64 2.78,-0.96 4.42,-0.96zm25.09 25.58c-2.18,0 -4.12,-0.37 -5.81,-1.12 -1.7,-0.74 -3.04,-1.76 -4.03,-3.06 -0.98,-1.3 -1.53,-2.75 -1.65,-4.36l7.55 0c0.09,0.86 0.5,1.56 1.21,2.1 0.72,0.54 1.6,0.81 2.64,0.81 0.95,0 1.69,-0.19 2.21,-0.56 0.52,-0.38 0.79,-0.86 0.79,-1.46 0,-0.71 -0.38,-1.24 -1.12,-1.58 -0.75,-0.35 -1.95,-0.73 -3.62,-1.14 -1.79,-0.42 -3.28,-0.86 -4.48,-1.32 -1.19,-0.47 -2.22,-1.2 -3.08,-2.19 -0.87,-1 -1.3,-2.35 -1.3,-4.05 0,-1.43 0.4,-2.74 1.19,-3.91 0.79,-1.18 1.95,-2.11 3.48,-2.8 1.54,-0.68 3.37,-1.03 5.48,-1.03 3.13,0 5.6,0.78 7.4,2.33 1.81,1.55 2.84,3.61 3.11,6.17l-7.06 0c-0.12,-0.87 -0.5,-1.55 -1.14,-2.06 -0.65,-0.5 -1.49,-0.76 -2.53,-0.76 -0.9,0 -1.58,0.17 -2.06,0.52 -0.48,0.34 -0.71,0.81 -0.71,1.4 0,0.72 0.38,1.26 1.14,1.61 0.76,0.36 1.94,0.72 3.55,1.08 1.85,0.47 3.36,0.94 4.52,1.41 1.16,0.46 2.18,1.2 3.06,2.23 0.88,1.03 1.33,2.41 1.36,4.14 0,1.46 -0.41,2.76 -1.23,3.91 -0.81,1.15 -1.99,2.05 -3.53,2.71 -1.53,0.65 -3.31,0.98 -5.34,0.98zm13.28 -12.88c0,-2.56 0.48,-4.81 1.45,-6.75 0.97,-1.94 2.29,-3.43 3.96,-4.47 1.67,-1.05 3.53,-1.57 5.59,-1.57 1.76,0 3.3,0.36 4.63,1.08 1.32,0.71 2.34,1.65 3.06,2.81l0 -3.53 7.65 0 0 24.95 -7.65 0 0 -3.53c-0.75,1.16 -1.78,2.1 -3.11,2.82 -1.32,0.71 -2.87,1.07 -4.63,1.07 -2.02,0 -3.87,-0.53 -5.54,-1.59 -1.67,-1.06 -2.99,-2.56 -3.96,-4.51 -0.97,-1.96 -1.45,-4.22 -1.45,-6.78zm18.69 0.05c0,-1.91 -0.53,-3.42 -1.59,-4.52 -1.06,-1.1 -2.34,-1.65 -3.87,-1.65 -1.52,0 -2.8,0.54 -3.86,1.63 -1.06,1.09 -1.59,2.58 -1.59,4.49 0,1.91 0.53,3.42 1.59,4.54 1.06,1.12 2.34,1.68 3.86,1.68 1.53,0 2.81,-0.56 3.87,-1.66 1.06,-1.1 1.59,-2.61 1.59,-4.51z"/>
  </g>
  <path class="fil3" d="M92.74 8.25l2.32 0 0 11.79 2.24 0 0 -1.26c0.29,0.42 0.69,0.75 1.18,1.01 0.5,0.27 1.07,0.4 1.73,0.4 0.76,0 1.44,-0.2 2.05,-0.58 0.61,-0.38 1.1,-0.92 1.45,-1.62 0.36,-0.69 0.54,-1.49 0.54,-2.4 0,-0.9 -0.18,-1.69 -0.54,-2.38 -0.35,-0.68 -0.84,-1.21 -1.45,-1.58 -0.61,-0.38 -1.29,-0.56 -2.05,-0.56 -0.64,0 -1.22,0.13 -1.73,0.4 -0.5,0.26 -0.9,0.61 -1.18,1.03l0 -4.25 8.57 0 0 11.79 2.24 0 0 -11.79 23.32 0c1.91,0 3.48,1.56 3.48,3.47l0 8.23c0,1.91 -1.57,3.48 -3.48,3.48l-3.72 0c0.37,-0.32 0.67,-0.69 0.9,-1.13 0.33,-0.65 0.49,-1.38 0.49,-2.19l0 -8.9 -2.25 0 0 1.26c-0.28,-0.41 -0.68,-0.75 -1.18,-1.01 -0.5,-0.26 -1.08,-0.39 -1.73,-0.39 -0.76,0 -1.44,0.18 -2.05,0.56 -0.61,0.37 -1.1,0.9 -1.45,1.59 -0.36,0.69 -0.54,1.48 -0.54,2.37 0,0.91 0.18,1.71 0.54,2.4 0.35,0.7 0.84,1.24 1.46,1.62 0.61,0.38 1.29,0.58 2.04,0.58 0.64,0 1.22,-0.14 1.73,-0.42 0.5,-0.28 0.9,-0.62 1.18,-1.03l0 1.37c0,0.78 -0.2,1.37 -0.6,1.76 -0.41,0.39 -0.93,0.58 -1.58,0.58 -0.55,0 -1.02,-0.12 -1.41,-0.36 -0.39,-0.24 -0.64,-0.56 -0.76,-0.96l-2.22 0c0.11,0.95 0.52,1.72 1.25,2.3l-28.79 0c-1.92,0 -3.48,-1.57 -3.48,-3.48l0 -8.23c0,-1.91 1.56,-3.47 3.48,-3.47zm9.23 7.34c0,-0.53 -0.11,-0.99 -0.33,-1.37 -0.22,-0.39 -0.5,-0.69 -0.86,-0.89 -0.36,-0.2 -0.74,-0.3 -1.16,-0.3 -0.4,0 -0.78,0.1 -1.14,0.31 -0.35,0.21 -0.64,0.51 -0.86,0.9 -0.21,0.39 -0.32,0.85 -0.32,1.39 0,0.53 0.11,0.99 0.32,1.38 0.22,0.4 0.51,0.7 0.86,0.9 0.36,0.21 0.74,0.31 1.14,0.31 0.42,0 0.8,-0.1 1.16,-0.31 0.36,-0.22 0.64,-0.52 0.86,-0.91 0.22,-0.4 0.33,-0.86 0.33,-1.41zm12.26 4.6c-0.85,0 -1.62,-0.19 -2.3,-0.57 -0.68,-0.38 -1.21,-0.91 -1.6,-1.6 -0.39,-0.69 -0.58,-1.49 -0.58,-2.39 0,-0.91 0.2,-1.7 0.59,-2.39 0.4,-0.7 0.95,-1.23 1.64,-1.61 0.69,-0.37 1.46,-0.56 2.31,-0.56 0.85,0 1.62,0.19 2.31,0.56 0.69,0.38 1.24,0.91 1.64,1.61 0.39,0.69 0.59,1.48 0.59,2.39 0,0.9 -0.2,1.7 -0.61,2.39 -0.41,0.69 -0.96,1.22 -1.66,1.6 -0.69,0.38 -1.47,0.57 -2.33,0.57zm0 -1.95c0.4,0 0.78,-0.1 1.14,-0.29 0.35,-0.2 0.64,-0.5 0.85,-0.89 0.21,-0.39 0.32,-0.87 0.32,-1.43 0,-0.84 -0.22,-1.49 -0.66,-1.94 -0.44,-0.45 -0.98,-0.68 -1.62,-0.68 -0.64,0 -1.17,0.23 -1.6,0.68 -0.43,0.45 -0.65,1.1 -0.65,1.94 0,0.84 0.21,1.48 0.63,1.93 0.42,0.46 0.95,0.68 1.59,0.68zm12.62 -2.61c0,-0.55 -0.1,-1.01 -0.32,-1.4 -0.21,-0.39 -0.5,-0.68 -0.86,-0.89 -0.36,-0.21 -0.75,-0.31 -1.16,-0.31 -0.41,0 -0.8,0.1 -1.15,0.3 -0.35,0.2 -0.63,0.5 -0.85,0.89 -0.22,0.38 -0.33,0.84 -0.33,1.37 0,0.54 0.11,1 0.33,1.4 0.22,0.4 0.5,0.7 0.86,0.92 0.36,0.21 0.74,0.31 1.14,0.31 0.41,0 0.8,-0.1 1.16,-0.31 0.36,-0.2 0.65,-0.5 0.86,-0.89 0.22,-0.39 0.32,-0.85 0.32,-1.39z"/>
 </g>
</svg>
