<?xml version="1.0" encoding="UTF-8"?>
<!DOCTYPE svg PUBLIC "-//W3C//DTD SVG 1.1//EN" "http://www.w3.org/Graphics/SVG/1.1/DTD/svg11.dtd">
<!-- Creator: CorelDRAW -->
<svg xmlns="http://www.w3.org/2000/svg" xml:space="preserve" width="443px" height="118px" version="1.1" style="shape-rendering:geometricPrecision; text-rendering:geometricPrecision; image-rendering:optimizeQuality; fill-rule:evenodd; clip-rule:evenodd"
viewBox="0 0 100.14 26.7"
 xmlns:xlink="http://www.w3.org/1999/xlink"
 xmlns:xodm="http://www.corel.com/coreldraw/odm/2003">
 <defs>
  <style type="text/css">
   <![CDATA[
    .fil3 {fill:#2F3940}
    .fil1 {fill:#FDFCFB;fill-rule:nonzero}
    .fil0 {fill:#03888F;fill-rule:nonzero}
    .fil2 {fill:#2F3940;fill-rule:nonzero}
   ]]>
  </style>
 </defs>
 <g id="Layer_x0020_1">
  <metadata id="CorelCorpID_0Corel-Layer"/>
  <g id="_2756517082304">
   <g>
    <path class="fil0" d="M0 13.35c0,-7.37 5.98,-13.35 13.35,-13.35 7.37,0 13.35,5.98 13.35,13.35 0,7.37 -5.98,13.35 -13.35,13.35 -7.37,0 -13.35,-5.98 -13.35,-13.35z"/>
    <path class="fil1" d="M13.74 9.46c0,-2 1.63,-3.63 3.64,-3.63 2,0 3.63,1.63 3.63,3.63 0,2.01 -1.63,3.63 -3.63,3.63 -2.01,0 -3.64,-1.62 -3.64,-3.63z"/>
    <path class="fil1" d="M10.27 22.74l0 0c-1.4,0 -2.54,-1.14 -2.54,-2.55l0 -12.32c0,-1.41 1.14,-2.55 2.54,-2.55l0 0c1.41,0 2.55,1.14 2.55,2.55l0 12.32c0,1.41 -1.14,2.55 -2.55,2.55z"/>
   </g>
   <path class="fil2" d="M32.98 11.2c0.3,-0.46 0.68,-0.83 1.14,-1.1 0.45,-0.27 0.96,-0.4 1.52,-0.4l0 2.75 -0.72 0c-0.65,0 -1.13,0.14 -1.46,0.42 -0.32,0.28 -0.48,0.76 -0.48,1.46l0 3.94 -2.6 0 0 -8.48 2.6 0 0 1.41zm7.76 7.19c-0.83,0 -1.57,-0.18 -2.24,-0.53 -0.66,-0.36 -1.18,-0.86 -1.56,-1.52 -0.38,-0.66 -0.57,-1.43 -0.57,-2.31 0,-0.87 0.19,-1.64 0.57,-2.3 0.39,-0.67 0.92,-1.18 1.58,-1.53 0.67,-0.36 1.42,-0.53 2.25,-0.53 0.83,0 1.58,0.17 2.25,0.53 0.67,0.35 1.2,0.86 1.58,1.53 0.39,0.66 0.58,1.43 0.58,2.3 0,0.87 -0.19,1.64 -0.58,2.3 -0.39,0.67 -0.93,1.17 -1.6,1.53 -0.67,0.35 -1.43,0.53 -2.26,0.53zm0 -2.25c0.5,0 0.92,-0.18 1.27,-0.55 0.35,-0.36 0.53,-0.88 0.53,-1.56 0,-0.68 -0.17,-1.2 -0.51,-1.57 -0.34,-0.36 -0.76,-0.54 -1.26,-0.54 -0.5,0 -0.92,0.18 -1.26,0.54 -0.33,0.36 -0.5,0.88 -0.5,1.57 0,0.68 0.17,1.2 0.49,1.56 0.33,0.37 0.75,0.55 1.24,0.55zm16.65 -6.44c1.05,0 1.89,0.32 2.51,0.96 0.62,0.63 0.94,1.52 0.94,2.66l0 4.95 -2.59 0 0 -4.61c0,-0.54 -0.14,-0.97 -0.43,-1.26 -0.29,-0.3 -0.69,-0.45 -1.19,-0.45 -0.51,0 -0.91,0.15 -1.2,0.45 -0.29,0.29 -0.43,0.72 -0.43,1.26l0 4.61 -2.58 0 0 -4.61c0,-0.54 -0.15,-0.97 -0.44,-1.26 -0.29,-0.3 -0.68,-0.45 -1.19,-0.45 -0.51,0 -0.9,0.15 -1.19,0.45 -0.29,0.29 -0.44,0.72 -0.44,1.26l0 4.61 -2.6 0 0 -8.48 2.6 0 0 1.06c0.27,-0.35 0.61,-0.63 1.04,-0.84 0.42,-0.21 0.9,-0.31 1.44,-0.31 0.64,0 1.21,0.13 1.71,0.41 0.5,0.27 0.89,0.66 1.18,1.17 0.29,-0.47 0.69,-0.85 1.2,-1.14 0.51,-0.3 1.06,-0.44 1.66,-0.44zm4.75 4.31c0,-0.87 0.17,-1.63 0.5,-2.29 0.33,-0.66 0.77,-1.17 1.34,-1.52 0.57,-0.36 1.2,-0.53 1.9,-0.53 0.6,0 1.12,0.12 1.57,0.36 0.46,0.25 0.8,0.56 1.05,0.96l0 -1.2 2.59 0 0 8.48 -2.59 0 0 -1.2c-0.26,0.39 -0.61,0.71 -1.06,0.96 -0.45,0.24 -0.98,0.36 -1.57,0.36 -0.69,0 -1.32,-0.18 -1.89,-0.54 -0.57,-0.36 -1.01,-0.87 -1.34,-1.53 -0.33,-0.67 -0.5,-1.43 -0.5,-2.31zm6.36 0.02c0,-0.65 -0.18,-1.16 -0.54,-1.54 -0.36,-0.37 -0.8,-0.56 -1.32,-0.56 -0.52,0 -0.95,0.19 -1.31,0.56 -0.36,0.37 -0.54,0.88 -0.54,1.52 0,0.65 0.18,1.17 0.54,1.55 0.36,0.38 0.79,0.57 1.31,0.57 0.52,0 0.96,-0.19 1.32,-0.57 0.36,-0.37 0.54,-0.88 0.54,-1.53zm9.65 -4.33c0.99,0 1.78,0.32 2.37,0.96 0.6,0.65 0.89,1.53 0.89,2.66l0 4.95 -2.58 0 0 -4.61c0,-0.56 -0.15,-1 -0.44,-1.32 -0.29,-0.31 -0.69,-0.47 -1.19,-0.47 -0.49,0 -0.89,0.16 -1.18,0.47 -0.3,0.32 -0.44,0.76 -0.44,1.32l0 4.61 -2.6 0 0 -8.48 2.6 0 0 1.12c0.26,-0.37 0.62,-0.67 1.06,-0.89 0.45,-0.21 0.95,-0.32 1.51,-0.32zm8.52 8.69c-0.74,0 -1.4,-0.13 -1.97,-0.38 -0.58,-0.25 -1.04,-0.6 -1.37,-1.04 -0.34,-0.44 -0.52,-0.93 -0.56,-1.48l2.57 0c0.03,0.29 0.16,0.53 0.41,0.71 0.24,0.19 0.54,0.28 0.89,0.28 0.33,0 0.58,-0.07 0.75,-0.19 0.18,-0.13 0.27,-0.29 0.27,-0.5 0,-0.24 -0.13,-0.42 -0.38,-0.54 -0.25,-0.11 -0.66,-0.24 -1.23,-0.38 -0.61,-0.15 -1.12,-0.3 -1.52,-0.45 -0.41,-0.16 -0.76,-0.41 -1.05,-0.75 -0.29,-0.34 -0.44,-0.8 -0.44,-1.37 0,-0.49 0.13,-0.93 0.4,-1.33 0.27,-0.4 0.67,-0.72 1.19,-0.95 0.52,-0.24 1.14,-0.35 1.86,-0.35 1.06,0 1.9,0.26 2.52,0.79 0.61,0.52 0.96,1.22 1.05,2.1l-2.4 0c-0.04,-0.3 -0.17,-0.53 -0.39,-0.7 -0.22,-0.18 -0.5,-0.26 -0.86,-0.26 -0.3,0 -0.53,0.06 -0.7,0.17 -0.16,0.12 -0.24,0.28 -0.24,0.48 0,0.24 0.13,0.43 0.39,0.55 0.26,0.12 0.66,0.24 1.21,0.36 0.63,0.17 1.14,0.32 1.53,0.48 0.4,0.16 0.74,0.41 1.04,0.76 0.3,0.35 0.46,0.82 0.47,1.41 0,0.49 -0.14,0.94 -0.42,1.33 -0.28,0.39 -0.68,0.69 -1.2,0.92 -0.52,0.22 -1.13,0.33 -1.82,0.33zm4.52 -4.38c0,-0.87 0.16,-1.63 0.49,-2.29 0.33,-0.66 0.78,-1.17 1.35,-1.52 0.56,-0.36 1.2,-0.53 1.9,-0.53 0.59,0 1.12,0.12 1.57,0.36 0.45,0.25 0.8,0.56 1.04,0.96l0 -1.2 2.6 0 0 8.48 -2.6 0 0 -1.2c-0.25,0.39 -0.61,0.71 -1.06,0.96 -0.45,0.24 -0.97,0.36 -1.57,0.36 -0.69,0 -1.32,-0.18 -1.88,-0.54 -0.57,-0.36 -1.02,-0.87 -1.35,-1.53 -0.33,-0.67 -0.49,-1.43 -0.49,-2.31zm6.35 0.02c0,-0.65 -0.18,-1.16 -0.54,-1.54 -0.36,-0.37 -0.8,-0.56 -1.31,-0.56 -0.52,0 -0.96,0.19 -1.32,0.56 -0.36,0.37 -0.54,0.88 -0.54,1.52 0,0.65 0.18,1.17 0.54,1.55 0.36,0.38 0.8,0.57 1.32,0.57 0.51,0 0.95,-0.19 1.31,-0.57 0.36,-0.37 0.54,-0.88 0.54,-1.53z"/>
  </g>
  <path class="fil3" d="M31.52 2.8l0.79 0 0 4.01 0.76 0 0 -0.43c0.1,0.15 0.24,0.26 0.4,0.35 0.17,0.09 0.37,0.13 0.59,0.13 0.26,0 0.49,-0.06 0.7,-0.19 0.21,-0.13 0.37,-0.32 0.49,-0.55 0.12,-0.24 0.18,-0.51 0.18,-0.82 0,-0.31 -0.06,-0.58 -0.18,-0.81 -0.12,-0.23 -0.28,-0.41 -0.49,-0.54 -0.21,-0.13 -0.44,-0.19 -0.7,-0.19 -0.22,0 -0.41,0.05 -0.59,0.14 -0.17,0.09 -0.3,0.2 -0.4,0.35l0 -1.45 2.92 0 0 4.01 0.75 0 0 -4.01 7.93 0c0.65,0 1.18,0.53 1.18,1.18l0 2.8c0,0.65 -0.53,1.18 -1.18,1.18l-1.26 0c0.12,-0.1 0.23,-0.23 0.3,-0.38 0.11,-0.22 0.17,-0.47 0.17,-0.75l0 -3.02 -0.76 0 0 0.43c-0.1,-0.14 -0.23,-0.26 -0.4,-0.35 -0.17,-0.08 -0.37,-0.13 -0.59,-0.13 -0.26,0 -0.49,0.06 -0.7,0.19 -0.21,0.13 -0.37,0.31 -0.49,0.54 -0.13,0.24 -0.19,0.51 -0.19,0.81 0,0.31 0.06,0.58 0.19,0.82 0.12,0.23 0.28,0.42 0.49,0.55 0.21,0.13 0.44,0.19 0.7,0.19 0.22,0 0.41,-0.05 0.58,-0.14 0.17,-0.09 0.31,-0.21 0.41,-0.35l0 0.46c0,0.27 -0.07,0.47 -0.21,0.6 -0.14,0.13 -0.32,0.2 -0.54,0.2 -0.18,0 -0.34,-0.04 -0.48,-0.12 -0.13,-0.08 -0.21,-0.19 -0.25,-0.33l-0.76 0c0.04,0.33 0.18,0.59 0.43,0.78l-9.79 0c-0.65,0 -1.18,-0.53 -1.18,-1.18l0 -2.8c0,-0.65 0.53,-1.18 1.18,-1.18zm3.14 2.5c0,-0.18 -0.04,-0.34 -0.11,-0.47 -0.08,-0.13 -0.17,-0.23 -0.3,-0.3 -0.12,-0.07 -0.25,-0.1 -0.39,-0.1 -0.14,0 -0.27,0.03 -0.39,0.1 -0.12,0.07 -0.21,0.18 -0.29,0.31 -0.07,0.13 -0.11,0.29 -0.11,0.47 0,0.18 0.04,0.34 0.11,0.47 0.08,0.14 0.17,0.24 0.29,0.31 0.12,0.07 0.25,0.1 0.39,0.1 0.14,0 0.27,-0.03 0.39,-0.1 0.13,-0.08 0.22,-0.18 0.3,-0.31 0.07,-0.14 0.11,-0.3 0.11,-0.48zm4.16 1.56c-0.28,0 -0.54,-0.06 -0.78,-0.19 -0.23,-0.13 -0.41,-0.31 -0.54,-0.55 -0.13,-0.23 -0.2,-0.5 -0.2,-0.81 0,-0.31 0.07,-0.58 0.21,-0.81 0.13,-0.24 0.32,-0.42 0.55,-0.55 0.24,-0.12 0.5,-0.19 0.79,-0.19 0.29,0 0.55,0.07 0.78,0.19 0.24,0.13 0.42,0.31 0.56,0.55 0.13,0.23 0.2,0.5 0.2,0.81 0,0.31 -0.07,0.58 -0.21,0.81 -0.14,0.24 -0.32,0.42 -0.56,0.55 -0.24,0.13 -0.5,0.19 -0.8,0.19zm0 -0.66c0.14,0 0.27,-0.03 0.39,-0.1 0.12,-0.07 0.22,-0.17 0.29,-0.3 0.07,-0.13 0.11,-0.3 0.11,-0.49 0,-0.28 -0.07,-0.5 -0.22,-0.66 -0.15,-0.15 -0.34,-0.23 -0.55,-0.23 -0.22,0 -0.4,0.08 -0.55,0.23 -0.15,0.16 -0.22,0.38 -0.22,0.66 0,0.29 0.07,0.51 0.22,0.66 0.14,0.15 0.32,0.23 0.53,0.23zm4.3 -0.89c0,-0.18 -0.04,-0.34 -0.11,-0.47 -0.07,-0.13 -0.17,-0.24 -0.29,-0.31 -0.13,-0.07 -0.26,-0.1 -0.4,-0.1 -0.14,0 -0.27,0.03 -0.39,0.1 -0.12,0.07 -0.22,0.17 -0.29,0.3 -0.07,0.13 -0.11,0.29 -0.11,0.47 0,0.18 0.04,0.34 0.11,0.47 0.07,0.14 0.17,0.24 0.29,0.32 0.12,0.07 0.25,0.1 0.39,0.1 0.14,0 0.27,-0.03 0.4,-0.1 0.12,-0.07 0.22,-0.17 0.29,-0.3 0.07,-0.14 0.11,-0.29 0.11,-0.48z"/>
 </g>
</svg>
